# xmcd
#
# Track frame offsets:
#	150
#	5205
#	22107
#	37932
#	55932
#	72262
#	88922
#	99442
#	112570
#	133215
#	145335
#
# Disc length: 2207 seconds
#
# Revision: 0
# Processed by: cddbd v1.5.2PL0 Copyright (c) Steve Scherf et al.
# Submitted via: audiograbber 1.83.01
#
DISCID=95089d0b
DTITLE=Daryl Braithwaite - Out on the Fringe
DYEAR=1900
DGENRE=
TTITLE0=Out on the Fringe
TTITLE1=I thought it was you
TTITLE2=Hit onto something good
TTITLE3=Love like a child
TTITLE4=Bandits
TTITLE5=Desperately
TTITLE6=They Don't See what I do
TTITLE7=Prove your love
TTITLE8=Lips that taste of wine
TTITLE9=That's Right
TTITLE10=Out on the Fringe (reprise)
EXTD=
EXTT0=
EXTT1=
EXTT2=
EXTT3=
EXTT4=
EXTT5=
EXTT6=
EXTT7=
EXTT8=
EXTT9=
EXTT10=
PLAYORDER=
